<?xml version="1.0" standalone="no"?>
<svg xmlns:xlink="http://www.w3.org/1999/xlink" viewBox="0 0 900 900" xmlns="http://www.w3.org/2000/svg"><style>
                .segment, .outer-rim { stroke: #ffffff !important; }
                .spoke-text { font-family: 'Lato', sans-serif; font-weight: 700; font-size: 13px; letter-spacing: 0.3px; }
                .category-text { font-family: 'Lato', sans-serif; font-weight: 900; font-size: 22px; text-transform: uppercase; letter-spacing: 3px; }
            </style><defs><filter id="wheelShadow" x="-20%" y="-20%" width="140%" height="140%"><feDropShadow dx="0" dy="10" stdDeviation="15" flood-opacity="0.15"/></filter><path d="M 301.50757595082507 598.492424049175 A 210 210 0 0 1 301.50757595082496 301.50757595082507" id="text-path-affiliation" fill="none"/><path d="M 301.50757595082496 301.50757595082507 A 210 210 0 0 1 598.4924240491749 301.50757595082496" id="text-path-selfDet" fill="none"/><path d="M 598.492424049175 598.4924240491749 A 210 210 0 0 0 598.492424049175 301.50757595082507" id="text-path-rest" fill="none"/><path d="M 301.50757595082507 598.492424049175 A 210 210 0 0 0 598.492424049175 598.4924240491749" id="text-path-safety" fill="none"/><linearGradient id="grad-1" gradientUnits="userSpaceOnUse" x1="355.30234791759307" y1="410.7749481825783" x2="410.7749481825783" y2="355.3023479175931"><stop offset="0%" style="stop-color: #C2185B; stop-opacity: 1"/><stop offset="100%" style="stop-color: #F9A825; stop-opacity: 1"/></linearGradient><linearGradient id="grad-3" gradientUnits="userSpaceOnUse" x1="489.22505181742173" y1="355.3023479175931" x2="544.6976520824069" y2="410.7749481825783"><stop offset="0%" style="stop-color: #F9A825; stop-opacity: 1"/><stop offset="100%" style="stop-color: #673AB7; stop-opacity: 1"/></linearGradient><linearGradient id="grad-5" gradientUnits="userSpaceOnUse" x1="544.6976520824069" y1="489.2250518174217" x2="489.22505181742173" y2="544.6976520824069"><stop offset="0%" style="stop-color: #673AB7; stop-opacity: 1"/><stop offset="100%" style="stop-color: #0277BD; stop-opacity: 1"/></linearGradient><linearGradient id="grad-7" gradientUnits="userSpaceOnUse" x1="410.7749481825783" y1="544.6976520824069" x2="355.3023479175931" y2="489.22505181742173"><stop offset="0%" style="stop-color: #0277BD; stop-opacity: 1"/><stop offset="100%" style="stop-color: #C2185B; stop-opacity: 1"/></linearGradient></defs><g filter="url(#wheelShadow)" class="wheel-shadow-group"><circle cx="450" cy="450" r="410" fill="#fff" stroke="var(--border-color)" stroke-width="18" class="outer-rim"/><path d="M 109.09745895595643 677.7837955380369 A 410 410 0 0 0 160.08621971351556 739.9137802864846 L 266.15223689149764 633.8477631085024 A 260 260 0 0 1 233.8179008013382 594.4482605850966 Z" fill="rgb(231, 163, 189)" stroke="var(--border-color)" stroke-width="3" class="segment"/><text x="191.0414981234831" y="662.5217501948213" fill="#1e293b" text-anchor="middle" dominant-baseline="middle" class="spoke-text" transform="rotate(320.625, 191.0414981234831, 662.5217501948213)">Intimacy</text><path d="M 71.20939167037244 606.9002072696869 A 410 410 0 0 0 109.09745895595643 677.7837955380369 L 233.8179008013382 594.4482605850966 A 260 260 0 0 1 209.79132154706545 549.4976924149233 Z" fill="rgb(231, 163, 189)" stroke="var(--border-color)" stroke-width="3" class="segment"/><text x="154.55637644330108" y="607.9179068367093" fill="#1e293b" text-anchor="middle" dominant-baseline="middle" class="spoke-text" transform="rotate(331.875, 154.55637644330108, 607.9179068367093)">Community</text><path d="M 47.87803503467552 529.9870320266125 A 410 410 0 0 0 71.20939167037244 606.9002072696869 L 209.79132154706545 549.4976924149233 A 260 260 0 0 1 194.99582709516008 500.72348372419333 Z" fill="rgb(231, 163, 189)" stroke="var(--border-color)" stroke-width="3" class="segment"/><text x="129.42498752971005" y="547.2453668802449" fill="#1e293b" text-anchor="middle" dominant-baseline="middle" class="spoke-text" transform="rotate(343.125, 129.42498752971005, 547.2453668802449)">Respect</text><path d="M 40 450.00000000000006 A 410 410 0 0 0 47.87803503467552 529.9870320266125 L 194.99582709516008 500.72348372419333 A 260 260 0 0 1 190 450.00000000000006 Z" fill="rgb(231, 163, 189)" stroke="var(--border-color)" stroke-width="3" class="segment"/><text x="116.61311656481405" y="482.8357420104029" fill="#1e293b" text-anchor="middle" dominant-baseline="middle" class="spoke-text" transform="rotate(354.375, 116.61311656481405, 482.8357420104029)">Acceptance</text><path d="M 47.87803503467546 370.01296797338756 A 410 410 0 0 0 40 450.00000000000006 L 190 450.00000000000006 A 260 260 0 0 1 194.99582709516005 399.2765162758067 Z" fill="rgb(231, 163, 189)" stroke="var(--border-color)" stroke-width="3" class="segment"/><text x="116.61311656481405" y="417.1642579895972" fill="#1e293b" text-anchor="middle" dominant-baseline="middle" class="spoke-text" transform="rotate(365.625, 116.61311656481405, 417.1642579895972)">Understanding</text><path d="M 71.20939167037233 293.0997927303134 A 410 410 0 0 0 47.87803503467546 370.01296797338756 L 194.99582709516005 399.2765162758067 A 260 260 0 0 1 209.7913215470654 350.5023075850768 Z" fill="rgb(231, 163, 189)" stroke="var(--border-color)" stroke-width="3" class="segment"/><text x="129.42498752971" y="352.7546331197552" fill="#1e293b" text-anchor="middle" dominant-baseline="middle" class="spoke-text" transform="rotate(376.875, 129.42498752971, 352.7546331197552)">Closeness</text><path d="M 109.09745895595643 222.21620446196306 A 410 410 0 0 0 71.20939167037233 293.0997927303134 L 209.7913215470654 350.5023075850768 A 260 260 0 0 1 233.81790080133823 305.5517394149034 Z" fill="rgb(231, 163, 189)" stroke="var(--border-color)" stroke-width="3" class="segment"/><text x="154.55637644330108" y="292.0820931632908" fill="#1e293b" text-anchor="middle" dominant-baseline="middle" class="spoke-text" transform="rotate(388.125, 154.55637644330108, 292.0820931632908)">Honesty</text><path d="M 160.08621971351545 160.08621971351556 A 410 410 0 0 0 109.09745895595643 222.21620446196306 L 233.81790080133823 305.5517394149034 A 260 260 0 0 1 266.15223689149764 266.15223689149764 Z" fill="rgb(231, 163, 189)" stroke="var(--border-color)" stroke-width="3" class="segment"/><text x="191.04149812348305" y="237.47824980517885" fill="#1e293b" text-anchor="middle" dominant-baseline="middle" class="spoke-text" transform="rotate(399.375, 191.04149812348305, 237.47824980517885)">Contact</text><path d="M 222.21620446196277 109.09745895595665 A 410 410 0 0 0 160.08621971351545 160.08621971351556 L 266.15223689149764 266.15223689149764 A 260 260 0 0 1 305.55173941490324 233.81790080133837 Z" fill="rgb(253, 220, 168)" stroke="var(--border-color)" stroke-width="3" class="segment"/><text x="237.47824980517888" y="191.04149812348305" fill="#1e293b" text-anchor="middle" dominant-baseline="middle" class="spoke-text" transform="rotate(410.625, 237.47824980517888, 191.04149812348305)">Autonomy</text><path d="M 293.0997927303133 71.20939167037238 A 410 410 0 0 0 222.21620446196277 109.09745895595665 L 305.55173941490324 233.81790080133837 A 260 260 0 0 1 350.5023075850767 209.79132154706542 Z" fill="rgb(253, 220, 168)" stroke="var(--border-color)" stroke-width="3" class="segment"/><text x="292.0820931632907" y="154.55637644330108" fill="#1e293b" text-anchor="middle" dominant-baseline="middle" class="spoke-text" transform="rotate(421.875, 292.0820931632907, 154.55637644330108)">Voluntariness</text><path d="M 370.0129679733873 47.87803503467558 A 410 410 0 0 0 293.0997927303133 71.20939167037238 L 350.5023075850767 209.79132154706542 A 260 260 0 0 1 399.27651627580656 194.9958270951601 Z" fill="rgb(253, 220, 168)" stroke="var(--border-color)" stroke-width="3" class="segment"/><text x="352.7546331197551" y="129.42498752971005" fill="#1e293b" text-anchor="middle" dominant-baseline="middle" class="spoke-text" transform="rotate(433.125, 352.7546331197551, 129.42498752971005)">Individuality</text><path d="M 449.99999999999994 40 A 410 410 0 0 0 370.0129679733873 47.87803503467558 L 399.27651627580656 194.9958270951601 A 260 260 0 0 1 449.99999999999994 190 Z" fill="rgb(253, 220, 168)" stroke="var(--border-color)" stroke-width="3" class="segment"/><text x="417.1642579895972" y="116.61311656481405" fill="#1e293b" text-anchor="middle" dominant-baseline="middle" class="spoke-text" transform="rotate(444.375, 417.1642579895972, 116.61311656481405)">Privacy</text><path d="M 529.9870320266126 47.87803503467552 A 410 410 0 0 0 449.99999999999994 40 L 449.99999999999994 190 A 260 260 0 0 1 500.72348372419333 194.99582709516008 Z" fill="rgb(253, 220, 168)" stroke="var(--border-color)" stroke-width="3" class="segment"/><text x="482.8357420104026" y="116.61311656481405" fill="#1e293b" text-anchor="middle" dominant-baseline="middle" class="spoke-text" transform="rotate(635.625, 482.8357420104026, 116.61311656481405)">Freedom</text><path d="M 606.9002072696869 71.2093916703725 A 410 410 0 0 0 529.9870320266126 47.87803503467552 L 500.72348372419333 194.99582709516008 A 260 260 0 0 1 549.4976924149234 209.79132154706548 Z" fill="rgb(253, 220, 168)" stroke="var(--border-color)" stroke-width="3" class="segment"/><text x="547.2453668802448" y="129.42498752971" fill="#1e293b" text-anchor="middle" dominant-baseline="middle" class="spoke-text" transform="rotate(646.875, 547.2453668802448, 129.42498752971)">Independence</text><path d="M 677.7837955380368 109.09745895595637 A 410 410 0 0 0 606.9002072696869 71.2093916703725 L 549.4976924149234 209.79132154706548 A 260 260 0 0 1 594.4482605850965 233.81790080133817 Z" fill="rgb(253, 220, 168)" stroke="var(--border-color)" stroke-width="3" class="segment"/><text x="607.9179068367092" y="154.55637644330108" fill="#1e293b" text-anchor="middle" dominant-baseline="middle" class="spoke-text" transform="rotate(658.125, 607.9179068367092, 154.55637644330108)">Authenticity</text><path d="M 739.9137802864844 160.08621971351545 A 410 410 0 0 0 677.7837955380368 109.09745895595637 L 594.4482605850965 233.81790080133817 A 260 260 0 0 1 633.8477631085022 266.15223689149764 Z" fill="rgb(253, 220, 168)" stroke="var(--border-color)" stroke-width="3" class="segment"/><text x="662.5217501948213" y="191.04149812348317" fill="#1e293b" text-anchor="middle" dominant-baseline="middle" class="spoke-text" transform="rotate(669.375, 662.5217501948213, 191.04149812348317)">Self-reliance</text><path d="M 790.9025410440436 222.21620446196312 A 410 410 0 0 0 739.9137802864846 160.08621971351556 L 633.8477631085024 266.15223689149764 A 260 260 0 0 1 666.1820991986617 305.5517394149034 Z" fill="rgb(194, 176, 226)" stroke="var(--border-color)" stroke-width="3" class="segment"/><text x="708.958501876517" y="237.47824980517876" fill="#1e293b" text-anchor="middle" dominant-baseline="middle" class="spoke-text" transform="rotate(320.625, 708.958501876517, 237.47824980517876)">Harmony</text><path d="M 828.7906083296275 293.0997927303132 A 410 410 0 0 0 790.9025410440436 222.21620446196312 L 666.1820991986617 305.5517394149034 A 260 260 0 0 1 690.2086784529346 350.50230758507666 Z" fill="rgb(194, 176, 226)" stroke="var(--border-color)" stroke-width="3" class="segment"/><text x="745.4436235566989" y="292.0820931632908" fill="#1e293b" text-anchor="middle" dominant-baseline="middle" class="spoke-text" transform="rotate(331.875, 745.4436235566989, 292.0820931632908)">Recovery</text><path d="M 852.1219649653244 370.0129679733874 A 410 410 0 0 0 828.7906083296275 293.0997927303132 L 690.2086784529346 350.50230758507666 A 260 260 0 0 1 705.00417290484 399.27651627580667 Z" fill="rgb(194, 176, 226)" stroke="var(--border-color)" stroke-width="3" class="segment"/><text x="770.57501247029" y="352.7546331197551" fill="#1e293b" text-anchor="middle" dominant-baseline="middle" class="spoke-text" transform="rotate(343.125, 770.57501247029, 352.7546331197551)">Peace</text><path d="M 860 450 A 410 410 0 0 0 852.1219649653244 370.0129679733874 L 705.00417290484 399.27651627580667 A 260 260 0 0 1 710 450 Z" fill="rgb(194, 176, 226)" stroke="var(--border-color)" stroke-width="3" class="segment"/><text x="783.386883435186" y="417.1642579895972" fill="#1e293b" text-anchor="middle" dominant-baseline="middle" class="spoke-text" transform="rotate(354.375, 783.386883435186, 417.1642579895972)">Serenity</text><path d="M 852.1219649653244 529.9870320266126 A 410 410 0 0 0 860 450 L 710 450 A 260 260 0 0 1 705.00417290484 500.72348372419333 Z" fill="rgb(194, 176, 226)" stroke="var(--border-color)" stroke-width="3" class="segment"/><text x="783.386883435186" y="482.8357420104028" fill="#1e293b" text-anchor="middle" dominant-baseline="middle" class="spoke-text" transform="rotate(365.625, 783.386883435186, 482.8357420104028)">Silence</text><path d="M 828.7906083296275 606.9002072696868 A 410 410 0 0 0 852.1219649653244 529.9870320266126 L 705.00417290484 500.72348372419333 A 260 260 0 0 1 690.2086784529346 549.4976924149233 Z" fill="rgb(194, 176, 226)" stroke="var(--border-color)" stroke-width="3" class="segment"/><text x="770.57501247029" y="547.2453668802449" fill="#1e293b" text-anchor="middle" dominant-baseline="middle" class="spoke-text" transform="rotate(376.875, 770.57501247029, 547.2453668802449)">Comfort</text><path d="M 790.9025410440436 677.7837955380369 A 410 410 0 0 0 828.7906083296275 606.9002072696868 L 690.2086784529346 549.4976924149233 A 260 260 0 0 1 666.1820991986617 594.4482605850966 Z" fill="rgb(194, 176, 226)" stroke="var(--border-color)" stroke-width="3" class="segment"/><text x="745.4436235566989" y="607.9179068367092" fill="#1e293b" text-anchor="middle" dominant-baseline="middle" class="spoke-text" transform="rotate(388.125, 745.4436235566989, 607.9179068367092)">Retreat</text><path d="M 739.9137802864846 739.9137802864844 A 410 410 0 0 0 790.9025410440436 677.7837955380369 L 666.1820991986617 594.4482605850966 A 260 260 0 0 1 633.8477631085024 633.8477631085024 Z" fill="rgb(194, 176, 226)" stroke="var(--border-color)" stroke-width="3" class="segment"/><text x="708.958501876517" y="662.5217501948213" fill="#1e293b" text-anchor="middle" dominant-baseline="middle" class="spoke-text" transform="rotate(399.375, 708.958501876517, 662.5217501948213)">Coziness</text><path d="M 677.7837955380369 790.9025410440436 A 410 410 0 0 0 739.9137802864846 739.9137802864844 L 633.8477631085024 633.8477631085024 A 260 260 0 0 1 594.4482605850966 666.1820991986617 Z" fill="rgb(154, 201, 229)" stroke="var(--border-color)" stroke-width="3" class="segment"/><text x="662.5217501948213" y="708.9585018765168" fill="#1e293b" text-anchor="middle" dominant-baseline="middle" class="spoke-text" transform="rotate(410.625, 662.5217501948213, 708.9585018765168)">Shelter</text><path d="M 606.9002072696868 828.7906083296275 A 410 410 0 0 0 677.7837955380369 790.9025410440436 L 594.4482605850966 666.1820991986617 A 260 260 0 0 1 549.4976924149233 690.2086784529346 Z" fill="rgb(154, 201, 229)" stroke="var(--border-color)" stroke-width="3" class="segment"/><text x="607.9179068367092" y="745.4436235566989" fill="#1e293b" text-anchor="middle" dominant-baseline="middle" class="spoke-text" transform="rotate(421.875, 607.9179068367092, 745.4436235566989)">Honesty</text><path d="M 529.9870320266126 852.1219649653244 A 410 410 0 0 0 606.9002072696868 828.7906083296275 L 549.4976924149233 690.2086784529346 A 260 260 0 0 1 500.7234837241934 705.00417290484 Z" fill="rgb(154, 201, 229)" stroke="var(--border-color)" stroke-width="3" class="segment"/><text x="547.2453668802449" y="770.57501247029" fill="#1e293b" text-anchor="middle" dominant-baseline="middle" class="spoke-text" transform="rotate(433.125, 547.2453668802449, 770.57501247029)">Trust</text><path d="M 450 860 A 410 410 0 0 0 529.9870320266126 852.1219649653244 L 500.7234837241934 705.00417290484 A 260 260 0 0 1 450 710 Z" fill="rgb(154, 201, 229)" stroke="var(--border-color)" stroke-width="3" class="segment"/><text x="482.8357420104028" y="783.386883435186" fill="#1e293b" text-anchor="middle" dominant-baseline="middle" class="spoke-text" transform="rotate(444.375, 482.8357420104028, 783.386883435186)">Clarity</text><path d="M 370.0129679733875 852.1219649653245 A 410 410 0 0 0 450 860 L 450 710 A 260 260 0 0 1 399.2765162758067 705.00417290484 Z" fill="rgb(154, 201, 229)" stroke="var(--border-color)" stroke-width="3" class="segment"/><text x="417.1642579895973" y="783.386883435186" fill="#1e293b" text-anchor="middle" dominant-baseline="middle" class="spoke-text" transform="rotate(275.625, 417.1642579895973, 783.386883435186)">Orientation</text><path d="M 293.0997927303132 828.7906083296275 A 410 410 0 0 0 370.0129679733875 852.1219649653245 L 399.2765162758067 705.00417290484 A 260 260 0 0 1 350.50230758507666 690.2086784529346 Z" fill="rgb(154, 201, 229)" stroke="var(--border-color)" stroke-width="3" class="segment"/><text x="352.7546331197551" y="770.57501247029" fill="#1e293b" text-anchor="middle" dominant-baseline="middle" class="spoke-text" transform="rotate(286.875, 352.7546331197551, 770.57501247029)">Commitment</text><path d="M 222.21620446196306 790.9025410440436 A 410 410 0 0 0 293.0997927303132 828.7906083296275 L 350.50230758507666 690.2086784529346 A 260 260 0 0 1 305.5517394149034 666.1820991986617 Z" fill="rgb(154, 201, 229)" stroke="var(--border-color)" stroke-width="3" class="segment"/><text x="292.0820931632909" y="745.4436235566991" fill="#1e293b" text-anchor="middle" dominant-baseline="middle" class="spoke-text" transform="rotate(298.125, 292.0820931632909, 745.4436235566991)">Stability</text><path d="M 160.08621971351556 739.9137802864846 A 410 410 0 0 0 222.21620446196306 790.9025410440436 L 305.5517394149034 666.1820991986617 A 260 260 0 0 1 266.15223689149764 633.8477631085024 Z" fill="rgb(154, 201, 229)" stroke="var(--border-color)" stroke-width="3" class="segment"/><text x="237.4782498051788" y="708.958501876517" fill="#1e293b" text-anchor="middle" dominant-baseline="middle" class="spoke-text" transform="rotate(309.375, 237.4782498051788, 708.958501876517)">Mindfulness</text><path d="M 266.15223689149764 266.15223689149764 A 260 260 0 0 0 266.15223689149764 633.8477631085024 L 336.8629150101524 563.1370849898476 A 160 160 0 0 1 336.8629150101524 336.8629150101524 Z" fill="rgb(212, 93, 140)" stroke="var(--border-color)" stroke-width="3" class="segment"/><text class="category-text" fill="#1e293b" dy="9"><textPath xmlns:xlink="http://www.w3.org/1999/xlink" xlink:href="#text-path-affiliation" startOffset="50%" text-anchor="middle">Belonging</textPath></text><path d="M 633.8477631085022 266.15223689149764 A 260 260 0 0 0 266.15223689149764 266.15223689149764 L 336.8629150101524 336.8629150101524 A 160 160 0 0 1 563.1370849898476 336.8629150101524 Z" fill="rgb(251, 194, 102)" stroke="var(--border-color)" stroke-width="3" class="segment"/><text class="category-text" fill="#1e293b" dy="9"><textPath xmlns:xlink="http://www.w3.org/1999/xlink" xlink:href="#text-path-selfDet" startOffset="50%" text-anchor="middle">Self-Determination</textPath></text><path d="M 633.8477631085024 633.8477631085024 A 260 260 0 0 0 633.8477631085024 266.15223689149764 L 563.1370849898476 336.8629150101524 A 160 160 0 0 1 563.1370849898476 563.1370849898476 Z" fill="rgb(149, 117, 205)" stroke="var(--border-color)" stroke-width="3" class="segment"/><text class="category-text" fill="#1e293b" dy="9"><textPath xmlns:xlink="http://www.w3.org/1999/xlink" xlink:href="#text-path-rest" startOffset="50%" text-anchor="middle">Rest</textPath></text><path d="M 266.15223689149764 633.8477631085024 A 260 260 0 0 0 633.8477631085024 633.8477631085024 L 563.1370849898476 563.1370849898476 A 160 160 0 0 1 336.8629150101524 563.1370849898476 Z" fill="rgb(78, 160, 209)" stroke="var(--border-color)" stroke-width="3" class="segment"/><text class="category-text" fill="#1e293b" dy="9"><textPath xmlns:xlink="http://www.w3.org/1999/xlink" xlink:href="#text-path-safety" startOffset="50%" text-anchor="middle">Safety</textPath></text><path d="M 302.1792747981941 388.7706508215857 A 160 160 0 0 0 302.1792747981941 511.2293491784144 L 408.4254210369921 467.22075445642906 A 45 45 0 0 1 408.4254210369921 432.779245543571 Z" style="fill: #C2185B" stroke="var(--border-color)" stroke-width="3" class="segment"/><text x="347.5" y="450" text-anchor="middle" dominant-baseline="middle" class="spoke-text" fill="#ffffff" transform="rotate(360, 347.5, 450)">Appreciation</text><path d="M 388.77065082158566 302.1792747981941 A 160 160 0 0 0 302.1792747981941 388.7706508215857 L 408.4254210369921 432.779245543571 A 45 45 0 0 1 432.779245543571 408.4254210369921 Z" style="fill: url(#grad-1)" stroke="var(--border-color)" stroke-width="3" class="segment"/><text x="377.52155492837886" y="377.5215549283789" text-anchor="middle" dominant-baseline="middle" class="spoke-text" fill="#fff" transform="rotate(405, 377.52155492837886, 377.5215549283789)">Contribution</text><path d="M 511.2293491784144 302.1792747981941 A 160 160 0 0 0 388.77065082158566 302.1792747981941 L 432.779245543571 408.4254210369921 A 45 45 0 0 1 467.22075445642906 408.4254210369921 Z" style="fill: #F9A825" stroke="var(--border-color)" stroke-width="3" class="segment"/><text x="450" y="347.5" text-anchor="middle" dominant-baseline="middle" class="spoke-text" fill="#1f2937" transform="rotate(450, 450, 347.5)">Efficacy</text><path d="M 597.8207252018059 388.7706508215856 A 160 160 0 0 0 511.2293491784144 302.1792747981941 L 467.22075445642906 408.4254210369921 A 45 45 0 0 1 491.5745789630079 432.77924554357094 Z" style="fill: url(#grad-3)" stroke="var(--border-color)" stroke-width="3" class="segment"/><text x="522.4784450716211" y="377.5215549283789" text-anchor="middle" dominant-baseline="middle" class="spoke-text" fill="#fff" transform="rotate(315, 522.4784450716211, 377.5215549283789)">Variety</text><path d="M 597.8207252018059 511.2293491784144 A 160 160 0 0 0 597.8207252018059 388.7706508215856 L 491.5745789630079 432.77924554357094 A 45 45 0 0 1 491.5745789630079 467.22075445642906 Z" style="fill: #673AB7" stroke="var(--border-color)" stroke-width="3" class="segment"/><text x="552.5" y="450" text-anchor="middle" dominant-baseline="middle" class="spoke-text" fill="#ffffff" transform="rotate(360, 552.5, 450)">Beauty</text><path d="M 511.2293491784144 597.8207252018059 A 160 160 0 0 0 597.8207252018059 511.2293491784144 L 491.5745789630079 467.22075445642906 A 45 45 0 0 1 467.22075445642906 491.5745789630079 Z" style="fill: url(#grad-5)" stroke="var(--border-color)" stroke-width="3" class="segment"/><text x="522.4784450716211" y="522.4784450716211" text-anchor="middle" dominant-baseline="middle" class="spoke-text" fill="#fff" transform="rotate(405, 522.4784450716211, 522.4784450716211)">Balance</text><path d="M 388.77065082158566 597.8207252018059 A 160 160 0 0 0 511.2293491784144 597.8207252018059 L 467.22075445642906 491.5745789630079 A 45 45 0 0 1 432.77924554357094 491.5745789630079 Z" style="fill: #0277BD" stroke="var(--border-color)" stroke-width="3" class="segment"/><text x="450" y="552.5" text-anchor="middle" dominant-baseline="middle" class="spoke-text" fill="#ffffff" transform="rotate(270, 450, 552.5)">Justice</text><path d="M 302.1792747981941 511.2293491784144 A 160 160 0 0 0 388.77065082158566 597.8207252018059 L 432.77924554357094 491.5745789630079 A 45 45 0 0 1 408.4254210369921 467.22075445642906 Z" style="fill: url(#grad-7)" stroke="var(--border-color)" stroke-width="3" class="segment"/><text x="377.5215549283789" y="522.4784450716211" text-anchor="middle" dominant-baseline="middle" class="spoke-text" fill="#fff" transform="rotate(315, 377.5215549283789, 522.4784450716211)">Inclusion</text></g></svg>